<svg id="グループ_1398" data-name="グループ 1398" xmlns="http://www.w3.org/2000/svg" xmlns:xlink="http://www.w3.org/1999/xlink" width="23.035" height="17.702" viewBox="0 0 23.035 17.702">
  <defs>
    <clipPath id="clip-path">
      <rect id="長方形_513" data-name="長方形 513" width="23.035" height="17.702" fill="#fff"/>
    </clipPath>
  </defs>
  <g id="グループ_1397" data-name="グループ 1397" clip-path="url(#clip-path)">
    <path id="パス_453" data-name="パス 453" d="M341.374,64.519l7.565,6.6a2.558,2.558,0,0,0,.111-.746V57.826Z" transform="translate(-326.016 -55.224)" fill="#fff"/>
    <path id="パス_454" data-name="パス 454" d="M23.368,10.07a1.372,1.372,0,0,0,.9-.339L34.327.966a2.553,2.553,0,0,0-2-.966H14.41a2.553,2.553,0,0,0-2,.966L22.463,9.731a1.372,1.372,0,0,0,.9.339" transform="translate(-11.851)" fill="#fff"/>
    <path id="パス_455" data-name="パス 455" d="M0,57.826V70.368a2.558,2.558,0,0,0,.111.746l7.565-6.6Z" transform="translate(0 -55.224)" fill="#fff"/>
    <path id="パス_456" data-name="パス 456" d="M35.583,230.749a2.977,2.977,0,0,1-3.912,0L31,230.167l-7.852,6.845a2.546,2.546,0,0,0,1.518.5H42.585a2.546,2.546,0,0,0,1.518-.5l-7.852-6.845Z" transform="translate(-22.109 -219.812)" fill="#fff"/>
  </g>
</svg>
