<svg xmlns="http://www.w3.org/2000/svg" width="48" height="48" viewBox="0 0 48 48">
  <g id="icon_search" transform="translate(-14 -220)">
    <g id="グループ_234" data-name="グループ 234" transform="translate(1 1.984)">
      <path id="パス_91" data-name="パス 91" d="M34.794,29.756s-4.815-4.212-5.967-5.362c-1.69-1.682-2.367-2.492-1.77-3.859a14.259,14.259,0,1,0-6.524,6.522c1.368-.6,2.179.08,3.86,1.771,1.151,1.151,5.361,5.967,5.361,5.967,2.184,2.183,3.864.84,4.873-.168s2.351-2.688.166-4.871m-14.7-9.663a8.254,8.254,0,1,1,0-11.672,8.256,8.256,0,0,1,0,11.672" transform="translate(19 224.031)" fill="#fff"/>
    </g>
    <rect id="長方形_262" data-name="長方形 262" width="48" height="48" transform="translate(14 220)" fill="none"/>
  </g>
</svg>
