<svg xmlns="http://www.w3.org/2000/svg" xmlns:xlink="http://www.w3.org/1999/xlink" width="48" height="48" viewBox="0 0 48 48">
  <defs>
    <clipPath id="clip-path">
      <rect id="長方形_279" data-name="長方形 279" width="38.959" height="34.292" fill="none"/>
    </clipPath>
  </defs>
  <g id="icon_resolution" transform="translate(7 3.747)">
    <rect id="長方形_258" data-name="長方形 258" width="48" height="48" transform="translate(-7 -3.747)" fill="none"/>
    <g id="グループ_252" data-name="グループ 252" transform="translate(-2.48 3.107)">
      <path id="パス_135" data-name="パス 135" d="M168.583,103.132l-4.117-4.116-4.116,4.116,4.116,4.117Z" transform="translate(-148.149 -91.482)" fill="#fff"/>
      <rect id="長方形_278" data-name="長方形 278" width="5.822" height="23.287" transform="matrix(0.707, -0.707, 0.707, 0.707, 18.376, 17.826)" fill="#fff"/>
      <g id="グループ_251" data-name="グループ 251">
        <g id="グループ_250" data-name="グループ 250" clip-path="url(#clip-path)">
          <path id="パス_136" data-name="パス 136" d="M271.854,4.584,273.8,5.1a1.838,1.838,0,0,1,1.31,1.308l.511,1.943a.306.306,0,0,0,.592,0L276.72,6.4a1.841,1.841,0,0,1,1.31-1.31l1.943-.51a.307.307,0,0,0,0-.593l-1.943-.512a1.838,1.838,0,0,1-1.31-1.308L276.209.229a.306.306,0,0,0-.592,0l-.511,1.943a1.839,1.839,0,0,1-1.31,1.31l-1.942.51a.307.307,0,0,0,0,.593" transform="translate(-250.957)" fill="#fff"/>
          <path id="パス_137" data-name="パス 137" d="M152.335,292.6l-1.457-.384a1.375,1.375,0,0,1-.981-.98l-.383-1.455a.229.229,0,0,0-.443,0l-.383,1.455a1.38,1.38,0,0,1-.981.981l-1.456.383a.229.229,0,0,0,0,.444l1.456.383a1.377,1.377,0,0,1,.981.981l.383,1.455a.229.229,0,0,0,.443,0l.383-1.455a1.375,1.375,0,0,1,.981-.981l1.457-.383a.23.23,0,0,0,0-.444" transform="translate(-134.965 -267.571)" fill="#fff"/>
          <path id="パス_138" data-name="パス 138" d="M9.543,74.631l-2.222-.584a2.1,2.1,0,0,1-1.5-1.5L5.24,70.329a.347.347,0,0,0-.338-.261.351.351,0,0,0-.339.261L3.979,72.55a2.1,2.1,0,0,1-1.5,1.5l-2.222.584a.351.351,0,0,0,0,.678l2.222.584a2.1,2.1,0,0,1,1.5,1.5l.584,2.222a.35.35,0,0,0,.677,0l.586-2.222a2.1,2.1,0,0,1,1.5-1.5l2.222-.584a.351.351,0,0,0,0-.678" transform="translate(0 -64.736)" fill="#fff"/>
        </g>
      </g>
    </g>
  </g>
</svg>
