<svg xmlns="http://www.w3.org/2000/svg" xmlns:xlink="http://www.w3.org/1999/xlink" width="85.347" height="32" viewBox="0 0 85.347 32">
  <defs>
    <clipPath id="clip-path">
      <rect id="長方形_50" data-name="長方形 50" width="85.347" height="32" fill="#003c8d"/>
    </clipPath>
  </defs>
  <g id="グループ_114" data-name="グループ 114" transform="translate(0 0)">
    <g id="グループ_113" data-name="グループ 113" transform="translate(0 0)" clip-path="url(#clip-path)">
      <path id="パス_7" data-name="パス 7" d="M25.381,7.515V21.252a.441.441,0,0,1-.44.442H20.876a.441.441,0,0,1-.44-.442V7.515a.441.441,0,0,1,.44-.442h4.065a.441.441,0,0,1,.44.442" transform="translate(4.535 1.616)" fill="#003c8d"/>
      <path id="パス_8" data-name="パス 8" d="M37.846.442V31.557a.442.442,0,0,1-.44.443H33.34a.442.442,0,0,1-.44-.443V.442A.441.441,0,0,1,33.34,0h4.067a.441.441,0,0,1,.44.442" transform="translate(7.301 0)" fill="#003c8d"/>
      <path id="パス_9" data-name="パス 9" d="M50.309,7.515V21.252a.441.441,0,0,1-.44.442H45.8a.441.441,0,0,1-.44-.442V7.515a.441.441,0,0,1,.44-.442h4.065a.441.441,0,0,1,.44.442" transform="translate(10.067 1.616)" fill="#003c8d"/>
      <path id="パス_10" data-name="パス 10" d="M11.822,7.38a.442.442,0,0,0-.44.443v.537A7.2,7.2,0,0,0,6.5,7.112,7.311,7.311,0,0,0,7.27,21.69,7.2,7.2,0,0,0,11.382,20.4v.85a.441.441,0,0,0,.44.442h2.423a.441.441,0,0,0,.441-.442V7.824a.442.442,0,0,0-.441-.443ZM7.27,18.358a3.977,3.977,0,1,1,3.954-3.977A3.97,3.97,0,0,1,7.27,18.358" transform="translate(0 1.616)" fill="#003c8d"/>
      <path id="パス_11" data-name="パス 11" d="M69.65,7.38a.442.442,0,0,0-.44.443v.537a7.2,7.2,0,0,0-4.88-1.248A7.311,7.311,0,0,0,65.1,21.69,7.2,7.2,0,0,0,69.21,20.4v.85a.441.441,0,0,0,.44.442h2.423a.442.442,0,0,0,.441-.442V7.824a.443.443,0,0,0-.441-.443ZM65.1,18.358a3.977,3.977,0,1,1,3.955-3.977A3.97,3.97,0,0,1,65.1,18.358" transform="translate(12.833 1.616)" fill="#003c8d"/>
    </g>
  </g>
</svg>
