<svg xmlns="http://www.w3.org/2000/svg" xmlns:xlink="http://www.w3.org/1999/xlink" width="48" height="48" viewBox="0 0 48 48">
  <defs>
    <clipPath id="clip-path">
      <rect id="長方形_255" data-name="長方形 255" width="34.666" height="40.506" fill="none"/>
    </clipPath>
  </defs>
  <g id="icon_facedetection" transform="translate(7 3.747)">
    <path id="パス_106" data-name="パス 106" d="M33.346,320.948h-3.4v-3.4H28.006v5.341h5.34Z" transform="translate(-25.79 -292.429)" fill="#fff"/>
    <path id="パス_107" data-name="パス 107" d="M345.557,0V1.944h3.4v3.4H350.9V0Z" transform="translate(-318.219)" fill="#fff"/>
    <path id="パス_108" data-name="パス 108" d="M28.006,0V5.341H29.95v-3.4h3.4V0Z" transform="translate(-25.791)" fill="#fff"/>
    <path id="パス_109" data-name="パス 109" d="M348.953,320.948h-3.4v1.944h5.34v-5.341h-1.944Z" transform="translate(-318.219 -292.429)" fill="#fff"/>
    <g id="グループ_241" data-name="グループ 241" transform="translate(0 0)">
      <g id="グループ_240" data-name="グループ 240" clip-path="url(#clip-path)">
        <path id="パス_110" data-name="パス 110" d="M25.546,76.094C24.03,75.527,22.3,74,22.3,72.853v-3a10.367,10.367,0,0,0,2.916-5.427c1.134-.405,1.782-1.053,2.592-3.888.862-3.019-1.3-2.916-1.3-2.916V54.6c0-2.376-1.106-9.4-9.181-9.4s-9.18,7.02-9.18,9.4v3.024s-2.158-.1-1.3,2.916c.809,2.835,1.457,3.483,2.591,3.888a10.368,10.368,0,0,0,2.917,5.427v3c0,1.142-1.864,2.755-3.243,3.241C6.9,76.877,1.367,77.429,0,82.134H34.666c-1.372-4.691-6.916-5.215-9.12-6.039" transform="translate(0 -41.628)" fill="#fff"/>
      </g>
    </g>
    <rect id="長方形_258" data-name="長方形 258" width="48" height="48" transform="translate(-7 -3.747)" fill="none"/>
  </g>
</svg>
