<svg xmlns="http://www.w3.org/2000/svg" width="48" height="48" viewBox="0 0 48 48">
  <g id="icon_object" transform="translate(3.098 2)">
    <g id="グループ_238" data-name="グループ 238" transform="translate(-2 -1)">
      <path id="パス_98" data-name="パス 98" d="M93.8,67.847H71.4a.006.006,0,0,0-.006,0L65.179,78.5a.007.007,0,0,0,0,0v23.36a.006.006,0,0,0,.006.006h34.83a.006.006,0,0,0,.006-.006V78.5a.006.006,0,0,0,0,0L93.8,67.85a.006.006,0,0,0-.006,0m2.782,9.764H83.429a.006.006,0,0,1-.006-.006V70.451a.006.006,0,0,1,.006-.006h9.09a.006.006,0,0,1,.006,0l4.06,7.153a.006.006,0,0,1-.006.01m-23.9-7.166h9.09a.006.006,0,0,1,.006.006V77.6a.006.006,0,0,1-.006.006H68.619a.006.006,0,0,1-.006-.01l4.06-7.153a.006.006,0,0,1,.006,0m-4.9,28.816v-20a.006.006,0,0,1,.006-.006H97.416a.006.006,0,0,1,.006.006v20a.006.006,0,0,1-.006.006H67.782a.006.006,0,0,1-.006-.006" transform="translate(-59.616 -62.057)" fill="#fff"/>
      <path id="パス_99" data-name="パス 99" d="M226.134,249.466H219.86a1.182,1.182,0,0,0-1.2,1.266,1.167,1.167,0,0,0,1.162,1.067h6.274a1.182,1.182,0,0,0,1.2-1.266,1.167,1.167,0,0,0-1.162-1.067" transform="translate(-199.994 -228.176)" fill="#fff"/>
      <path id="パス_100" data-name="パス 100" d="M3.325,7.962H1V0H8.025v2.33h-4.7Z" transform="translate(-0.911 0)" fill="#fff"/>
      <path id="パス_101" data-name="パス 101" d="M465.594,458.667h-7.029v-2.33h4.7v-5.632h2.33Z" transform="translate(-419.431 -412.242)" fill="#fff"/>
      <path id="パス_102" data-name="パス 102" d="M7.962,466.113v2.33H0v-7.029h2.33v4.7Z" transform="translate(0 -422.036)" fill="#fff"/>
      <path id="パス_103" data-name="パス 103" d="M455.6.774V7.8h-2.33V3.1h-5.632V.774Z" transform="translate(-409.433 -0.708)" fill="#fff"/>
    </g>
    <rect id="長方形_260" data-name="長方形 260" width="48" height="48" transform="translate(-3.098 -2)" fill="none"/>
  </g>
</svg>
